<?xml version="1.0" standalone="no"?>
<!DOCTYPE svg PUBLIC "-//W3C//DTD SVG 20010904//EN"
 "http://www.w3.org/TR/2001/REC-SVG-20010904/DTD/svg10.dtd">
<svg version="1.0" xmlns="http://www.w3.org/2000/svg"
 width="512.000000pt" height="512.000000pt" viewBox="0 0 512.000000 512.000000"
 preserveAspectRatio="xMidYMid meet">
<metadata>
Created by potrace 1.16, written by Peter Selinger 2001-2019
</metadata>
<g transform="translate(0.000000,512.000000) scale(0.100000,-0.100000)"
fill="#000000" stroke="none">
<path d="M2261 5095 c-33 -28 -52 -81 -49 -136 1 -19 1 -85 0 -148 l-2 -113
-72 6 c-40 3 -140 7 -223 8 -132 2 -155 0 -190 -17 -58 -29 -75 -70 -75 -178
0 -61 -4 -89 -12 -92 -7 -2 -136 -9 -285 -15 -286 -11 -410 -23 -455 -47 -57
-28 -59 -42 -53 -386 19 -1115 13 -2327 -15 -3107 -23 -615 -23 -622 -1 -657
26 -41 49 -47 286 -78 730 -94 1499 -135 2562 -135 l521 0 29 24 c15 13 40 48
56 78 l27 55 0 1992 c0 1676 -2 1997 -14 2025 -7 18 -17 53 -21 77 -5 30 -18
54 -40 76 l-33 33 -326 0 -326 0 0 73 c0 120 -15 187 -50 222 l-30 30 -209 3
-208 3 -7 112 c-12 197 -23 248 -56 282 l-30 30 -334 3 -334 3 -31 -26z m519
-330 l0 -75 -134 0 c-74 0 -141 3 -150 6 -12 5 -16 21 -16 75 l0 69 150 0 150
0 0 -75z m-39 -352 l536 -6 7 -276 c4 -152 10 -293 13 -313 l6 -38 -59 5 c-33
3 -302 12 -599 20 -297 8 -592 18 -656 21 l-115 6 7 61 c4 34 13 170 20 301
l12 239 146 -7 c80 -3 387 -9 682 -13z m-1129 -505 c-4 -197 -2 -239 11 -270
25 -58 61 -74 185 -82 85 -5 1249 -41 1557 -49 62 -1 75 2 110 27 45 31 52 41
77 111 15 44 17 74 11 248 l-6 197 241 0 242 0 0 -1910 0 -1910 -217 0 c-572
1 -1349 23 -1778 51 -331 21 -946 86 -961 101 -3 4 -1 136 5 295 20 522 30
1095 37 2068 6 877 5 963 -10 999 -12 30 -16 72 -16 187 0 82 3 150 8 150 28
5 260 16 373 17 l136 2 -5 -232z"/>
<path d="M3465 3058 c-11 -6 -152 -141 -314 -300 -415 -408 -805 -777 -1037
-981 -21 -18 -22 -18 -114 95 -51 62 -109 130 -128 151 -55 57 -79 53 -246
-47 -78 -46 -170 -99 -206 -119 -84 -46 -99 -63 -107 -125 l-6 -50 120 -129
c65 -70 172 -189 238 -263 167 -189 325 -345 358 -354 38 -9 74 10 189 102
295 237 521 448 1146 1072 448 446 483 486 468 545 -3 13 -41 79 -84 147 -43
67 -93 149 -111 180 -18 32 -42 65 -54 73 -25 18 -83 19 -112 3z m73 -345 l42
-68 -522 -520 c-288 -286 -586 -576 -664 -645 -142 -127 -327 -280 -336 -280
-14 0 -458 484 -458 499 0 8 152 96 166 96 6 0 66 -66 132 -146 67 -81 128
-149 137 -153 46 -17 81 -6 146 47 177 147 642 583 1044 979 143 142 262 257
265 258 3 0 24 -30 48 -67z"/>
</g>
</svg>
