<?xml version="1.0" standalone="no"?>
<!DOCTYPE svg PUBLIC "-//W3C//DTD SVG 20010904//EN"
 "http://www.w3.org/TR/2001/REC-SVG-20010904/DTD/svg10.dtd">
<svg version="1.0" xmlns="http://www.w3.org/2000/svg"
 width="512.000000pt" height="512.000000pt" viewBox="0 0 512.000000 512.000000"
 preserveAspectRatio="xMidYMid meet">
<metadata>
Created by potrace 1.16, written by Peter Selinger 2001-2019
</metadata>
<g transform="translate(0.000000,512.000000) scale(0.100000,-0.100000)"
fill="#000000" stroke="none">
<path d="M2259 5092 c-29 -26 -32 -35 -40 -113 -4 -46 -8 -127 -8 -179 l-1
-95 -182 7 c-337 14 -365 -1 -375 -192 l-6 -97 -231 -6 c-249 -7 -432 -21
-483 -38 -18 -6 -44 -24 -58 -41 l-26 -30 7 -322 c10 -535 7 -2265 -5 -2681
-6 -214 -16 -532 -22 -705 -16 -415 -25 -395 186 -424 710 -97 1229 -129 2365
-147 514 -9 747 -16 752 -23 6 -8 8 -8 8 0 0 6 17 16 39 22 45 14 49 18 90 94
l31 56 0 1987 c0 1690 -2 1992 -14 2018 -8 18 -17 48 -20 67 -10 57 -40 97
-83 109 -23 7 -159 11 -339 11 l-302 0 -3 119 c-3 102 -7 124 -25 148 -37 49
-54 53 -265 53 l-196 0 -7 46 c-3 26 -6 71 -6 100 0 68 -19 203 -31 227 -6 10
-25 27 -42 37 -30 19 -53 20 -354 20 l-323 0 -31 -28z m519 -326 l3 -79 -77 6
c-42 4 -110 7 -151 7 l-73 0 0 75 0 76 148 -3 147 -3 3 -79z m-165 -347 c364
-7 663 -13 663 -13 1 -1 4 -140 7 -310 l5 -309 -101 7 c-56 3 -358 13 -672 21
-313 9 -585 18 -604 21 l-33 5 6 47 c3 26 10 137 16 247 14 276 18 308 36 301
8 -3 313 -11 677 -17z m-995 -516 c-3 -263 1 -287 60 -317 40 -21 114 -25 877
-46 380 -11 728 -22 775 -26 78 -5 88 -4 120 18 19 13 40 37 45 53 6 17 23 44
39 60 l28 30 -4 208 -5 207 243 0 244 0 0 -1895 0 -1895 -392 0 c-963 0 -1798
43 -2432 126 l-129 17 7 201 c4 111 11 332 16 491 6 160 14 811 20 1447 9
1017 8 1163 -5 1200 -10 31 -15 86 -15 195 l0 152 63 4 c34 2 149 4 255 5
l193 2 -3 -237z"/>
<path d="M3012 2963 c-23 -16 -68 -60 -99 -97 -31 -38 -131 -138 -222 -223
l-166 -154 -230 236 c-230 234 -231 235 -274 235 -23 0 -52 -5 -64 -11 -42
-21 -367 -353 -378 -386 -14 -45 6 -86 83 -169 36 -38 118 -134 183 -214 65
-80 131 -159 148 -177 l30 -32 -29 -35 c-16 -19 -87 -105 -159 -193 -71 -87
-167 -203 -213 -257 -81 -96 -84 -101 -79 -142 5 -44 36 -81 308 -356 89 -90
100 -98 135 -98 22 0 51 8 66 18 15 9 110 105 211 212 102 107 217 227 257
265 l71 70 42 -50 c73 -87 320 -367 380 -431 101 -108 131 -99 378 119 112 98
181 167 185 182 14 57 19 51 -291 400 -115 130 -214 244 -219 252 -6 12 48 72
232 257 241 241 261 268 248 319 -8 33 -116 157 -286 330 -166 169 -179 176
-248 130z m168 -369 l103 -106 -225 -226 c-124 -125 -233 -241 -242 -259 -21
-41 -20 -92 1 -123 24 -35 225 -270 367 -429 l120 -134 -79 -73 c-44 -41 -83
-74 -86 -74 -6 0 -278 309 -399 453 -41 49 -84 93 -97 98 -30 11 -98 -3 -132
-29 -14 -10 -136 -134 -271 -275 l-245 -256 -92 96 -92 96 27 33 c15 17 85
103 157 190 71 88 164 201 207 252 71 84 78 96 78 136 0 34 -7 52 -32 84 -106
132 -291 357 -342 415 l-60 68 81 81 82 81 238 -242 c189 -192 243 -242 264
-241 75 1 183 90 373 310 114 132 163 180 182 180 6 0 57 -48 114 -106z"/>
</g>
</svg>
